<svg width="25" height="16" viewBox="0 0 25 16" fill="none" xmlns="http://www.w3.org/2000/svg">
<path d="M9.18506 2.10425H15.6743V13.8959H9.18506V2.10425Z" fill="#FF5F00"/>
<path d="M9.59758 8C9.59758 5.6042 10.71 3.47916 12.4198 2.10413C11.1633 1.10415 9.57703 0.5 7.84657 0.5C3.74686 0.5 0.430176 3.85412 0.430176 8C0.430176 12.1458 3.74686 15.5 7.84648 15.5C9.57694 15.5 11.1632 14.8959 12.4198 13.8958C10.71 12.5416 9.59758 10.3958 9.59758 8Z" fill="#F30039"/>
<path d="M24.4306 8C24.4306 12.1458 21.1139 15.5 17.0143 15.5C15.2838 15.5 13.6976 14.8959 12.4409 13.8958C14.1714 12.5208 15.2632 10.3958 15.2632 8C15.2632 5.6042 14.1507 3.47916 12.4409 2.10413C13.6975 1.10415 15.2838 0.5 17.0143 0.5C21.1139 0.5 24.4306 3.875 24.4306 8Z" fill="#FFBD66"/>
</svg>
