<svg width="17" height="16" viewBox="0 0 17 16" fill="none" xmlns="http://www.w3.org/2000/svg">
<path d="M13.142 10.3401V6.75556C12.7469 6.82449 12.3519 6.89342 11.9568 6.89342H11.5617V11.0295H3.66049V6.20408C3.66049 4.27392 5.39877 2.75737 7.61111 2.75737C7.69012 1.86122 8.1642 1.10295 8.7963 0.48254C8.55926 0.206803 8.08519 0 7.61111 0C6.74198 0 6.03086 0.620408 6.03086 1.37868V1.58549C3.66049 2.2059 2.08025 4.06712 2.08025 6.20408V10.3401L0.5 11.7188V12.4082H14.7222V11.7188L13.142 10.3401ZM6.03086 13.0975C6.03086 13.8558 6.74198 14.4762 7.61111 14.4762C8.48025 14.4762 9.19136 13.8558 9.19136 13.0975H6.03086ZM14.7222 3.10204C14.7222 4.41179 13.458 5.51474 11.9568 5.51474C10.4556 5.51474 9.19136 4.41179 9.19136 3.10204C9.19136 1.79229 10.4556 0.689342 11.9568 0.689342C13.458 0.689342 14.7222 1.79229 14.7222 3.10204Z" fill="#6F7269"/>
</svg>
