<svg width="41" height="26" viewBox="0 0 41 26" fill="none" xmlns="http://www.w3.org/2000/svg">
<rect x="0.680176" y="0.75" width="39.5" height="24.5" rx="3.75" stroke="#E6E6E6" stroke-width="0.5"/>
<path d="M26.7845 8.86865C26.1338 8.61996 25.446 8.49516 24.7534 8.50014C22.5138 8.50014 20.932 9.68348 20.9208 11.3822C20.9068 12.6301 22.0448 13.3333 22.9057 13.7503C23.789 14.179 24.0843 14.4492 24.0815 14.8323C24.0759 15.4152 23.376 15.6795 22.7251 15.6795C21.8307 15.6795 21.3421 15.5488 20.5905 15.2214L20.3119 15.0849L19.9941 17.0405C20.5387 17.2783 21.5199 17.4824 22.5334 17.5C24.9144 17.5 26.471 16.324 26.4892 14.5167C26.5088 13.5198 25.8929 12.7666 24.5967 12.1441C23.8086 11.7404 23.32 11.4702 23.32 11.0606C23.32 10.698 23.7386 10.3104 24.6134 10.3104C25.1957 10.2956 25.7744 10.4102 26.3114 10.6466L26.5214 10.745L26.8391 8.85544L26.7845 8.86865ZM32.5965 8.6587H30.8467C30.3022 8.6587 29.8921 8.8158 29.6541 9.38251L26.289 17.3781H28.67L29.146 16.0671L32.0519 16.07C32.1205 16.3769 32.3305 17.3781 32.3305 17.3781H34.4302L32.5965 8.6587ZM17.6999 8.5853H19.9689L18.5496 17.3091H16.2833L17.6999 8.58236V8.5853ZM11.9397 13.3935L12.1749 14.6048L14.3922 8.6587H16.7956L13.2248 17.3664H10.8269L8.86721 9.99327C8.83547 9.87169 8.76093 9.76728 8.65864 9.7011C7.95231 9.31841 7.2039 9.02799 6.43018 8.83635L6.46097 8.65283H10.113C10.6085 8.67339 11.0075 8.83635 11.1405 9.39132L11.9383 13.3979L11.9397 13.3935ZM29.7969 14.2832L30.7011 11.8432C30.6899 11.8696 30.8873 11.3396 31.0021 11.0122L31.1575 11.7653L31.6824 14.2818H29.7955L29.7969 14.2832Z" fill="#4272DD"/>
</svg>
